<svg width="23" height="29" viewBox="0 0 23 29" fill="none" xmlns="http://www.w3.org/2000/svg">
<path d="M22.6593 22.2603L22.094 25.9811C22.0429 26.3267 21.9201 26.6578 21.7333 26.9533C21.5466 27.2487 21.3001 27.5019 21.0095 27.6966C20.719 27.8914 20.3909 28.0234 20.0462 28.0843C19.7016 28.1451 19.3479 28.1334 19.0079 28.05C15.2469 27.0542 11.7717 25.192 8.86173 22.6128C6.14842 20.2523 3.98873 17.3249 2.53606 14.0382C0.927443 10.4835 0.180158 6.60108 0.35474 2.70544C0.375798 2.35774 0.469161 2.01828 0.628887 1.70865C0.788613 1.39903 1.0112 1.12603 1.28248 0.907038C1.55376 0.688046 1.86778 0.527858 2.20456 0.436674C2.54134 0.345491 2.89349 0.325309 3.23859 0.377414L6.96678 0.943887C7.57079 1.0296 8.12309 1.33159 8.52074 1.79356C8.91839 2.25552 9.13426 2.84596 9.12811 3.4548C9.10454 4.66944 9.21872 5.88294 9.46847 7.07213C9.56822 7.54145 9.5311 8.0294 9.36151 8.47816C9.19193 8.92692 8.89698 9.31767 8.51161 9.60412L6.69402 10.9395C7.99132 14.3133 10.1767 17.2757 13.0197 19.514L14.8373 18.1787C15.2258 17.8965 15.6873 17.7316 16.1671 17.7033C16.6469 17.6749 17.1248 17.7845 17.5443 18.019C18.6079 18.6102 19.7352 19.0794 20.9044 19.4178C21.4952 19.5945 22.0004 19.9817 22.324 20.5058C22.6475 21.0299 22.7669 21.6543 22.6593 22.2603Z" fill="#0C1925"/>
</svg>
