<svg width="72" height="72" viewBox="0 0 72 72" fill="none" xmlns="http://www.w3.org/2000/svg">
<path d="M42.3225 4.725C40.464 -1.575 31.536 -1.575 29.6775 4.725L29.2275 6.255C28.9498 7.19818 28.4645 8.06724 27.8073 8.79846C27.15 9.52967 26.3374 10.1045 25.429 10.4808C24.5207 10.8571 23.5396 11.0253 22.5578 10.9731C21.576 10.9208 20.6183 10.6495 19.755 10.179L18.36 9.414C12.5865 6.273 6.273 12.5865 9.4185 18.3555L10.179 19.755C12.186 23.445 10.2825 28.0395 6.255 29.2275L4.725 29.6775C-1.575 31.536 -1.575 40.464 4.725 42.3225L6.255 42.7725C7.19818 43.0502 8.06724 43.5355 8.79846 44.1927C9.52967 44.85 10.1045 45.6626 10.4808 46.571C10.8571 47.4793 11.0253 48.4604 10.9731 49.4422C10.9208 50.424 10.6495 51.3817 10.179 52.245L9.414 53.64C6.273 59.4135 12.5865 65.727 18.3555 62.5815L19.755 61.821C20.6183 61.3505 21.576 61.0792 22.5578 61.0269C23.5396 60.9747 24.5207 61.1429 25.429 61.5192C26.3374 61.8955 27.15 62.4703 27.8073 63.2015C28.4645 63.9328 28.9498 64.8018 29.2275 65.745L29.6775 67.275C31.536 73.575 40.464 73.575 42.3225 67.275L42.7725 65.745C43.0502 64.8018 43.5355 63.9328 44.1927 63.2015C44.85 62.4703 45.6626 61.8955 46.571 61.5192C47.4793 61.1429 48.4604 60.9747 49.4422 61.0269C50.424 61.0792 51.3817 61.3505 52.245 61.821L53.64 62.586C59.4135 65.727 65.727 59.4135 62.5815 53.6445L61.821 52.245C61.3505 51.3817 61.0792 50.424 61.0269 49.4422C60.9747 48.4604 61.1429 47.4793 61.5192 46.571C61.8955 45.6626 62.4703 44.85 63.2015 44.1927C63.9328 43.5355 64.8018 43.0502 65.745 42.7725L67.275 42.3225C73.575 40.464 73.575 31.536 67.275 29.6775L65.745 29.2275C64.8018 28.9498 63.9328 28.4645 63.2015 27.8073C62.4703 27.15 61.8955 26.3374 61.5192 25.429C61.1429 24.5207 60.9747 23.5396 61.0269 22.5578C61.0792 21.576 61.3505 20.6183 61.821 19.755L62.586 18.36C65.727 12.5865 59.4135 6.273 53.6445 9.4185L52.245 10.179C51.3817 10.6495 50.424 10.9208 49.4422 10.9731C48.4604 11.0253 47.4793 10.8571 46.571 10.4808C45.6626 10.1045 44.85 9.52967 44.1927 8.79846C43.5355 8.06724 43.0502 7.19818 42.7725 6.255L42.3225 4.725ZM36 49.185C32.5031 49.185 29.1495 47.7959 26.6768 45.3232C24.2041 42.8505 22.815 39.4969 22.815 36C22.815 32.5031 24.2041 29.1495 26.6768 26.6768C29.1495 24.2041 32.5031 22.815 36 22.815C39.4957 22.815 42.8482 24.2037 45.32 26.6755C47.7918 29.1473 49.1805 32.4998 49.1805 35.9955C49.1805 39.4912 47.7918 42.8437 45.32 45.3155C42.8482 47.7873 39.4957 49.176 36 49.176V49.185Z" fill="#0085CA"/>
</svg>
