<svg xmlns="http://www.w3.org/2000/svg" viewBox="0 0 775.58 206.67"><defs><style>.cls-1{fill:#0085ca;}.cls-2{fill:#55c2ff;}</style></defs><title>juno_care_logo_3</title><g id="Layer_2" data-name="Layer 2"><g id="Logo"><g id="Texts"><g id="Juno-Logo"><path class="cls-1" d="M440.08,116.8a58.59,58.59,0,0,1-4.69,10,57.08,57.08,0,0,1-17.88-5.27A26.6,26.6,0,0,0,434,120,43.64,43.64,0,0,0,440.08,116.8Z"/><path class="cls-1" d="M443.46,96.62V97a60.07,60.07,0,0,1-.84,10,59.25,59.25,0,0,1-2.54,9.78A43.64,43.64,0,0,1,434,120a26.6,26.6,0,0,1-16.51,1.57,57.08,57.08,0,0,0,17.88,5.27,59.69,59.69,0,0,1-44.8,28.84c-.87.1-1.76.19-2.66.26-1.2.1-2.41.18-3.63.21,0-1.28-.06-2.58-.06-3.92a79.67,79.67,0,0,1,.93-12c.32-2.09.71-4.18,1.19-6.3,19.47-1.65,31.66-17.55,31.66-36.4v-.4a41.06,41.06,0,0,0-1.59-11.41,37.33,37.33,0,0,0-5.21-11c-.55-.81-1.15-1.59-1.77-2.35a34,34,0,0,0-12.4-9.49,35.36,35.36,0,0,0-14.47-3c-21.23,0-34.84,16.62-34.84,36.75V97a38.42,38.42,0,0,0,9,25.14,34.74,34.74,0,0,0,3.69,3.69,74.93,74.93,0,0,0-4,13.65,64.76,64.76,0,0,0-1.09,10.64A58.05,58.05,0,0,1,322.3,97.42V97c0-32.44,25.84-59.38,60.68-59.38a61.3,61.3,0,0,1,39,13.42,58.2,58.2,0,0,1,14,16.61,58.25,58.25,0,0,1,3.54,7.54,59.31,59.31,0,0,1,3.91,19.61Q443.46,95.72,443.46,96.62Z"/><path class="cls-1" d="M81.9,0A12.62,12.62,0,1,0,94.52,12.62,12.62,12.62,0,0,0,81.9,0Z"/><path class="cls-1" d="M82.2,37.75A12,12,0,0,0,70.19,50v59.48C69.79,125.16,61.68,134,47.56,134h-.7c-14.42,0-22.63-9.21-22.63-25.63v-.2a12.12,12.12,0,1,0-24.23,0v7.4a38.13,38.13,0,0,0,7.41,22.83c8.31,11.22,22.73,17.83,38.05,17.83h3.4a50.1,50.1,0,0,0,29.84-9.62,42.29,42.29,0,0,0,8.21-8.21,37.54,37.54,0,0,0,7.41-22.83V49.86A12,12,0,0,0,82.2,37.75Z"/><path class="cls-1" d="M203.05,51.16a12.12,12.12,0,1,0-24.23,0l-.1,50.87v7.31c-.4,15.72-8.51,24.63-22.62,24.63h-.71c-14.41,0-22.62-9.21-22.62-25.63V51.26a12.12,12.12,0,1,0-24.23,0v64.28a37.27,37.27,0,0,0,7.81,23.23c8.41,11,22.62,17.53,37.84,17.53h3.41c15.12,0,29.43-6.51,37.84-17.53a37.88,37.88,0,0,0,7.81-23.23v-2.6h0V51.16Z"/><path class="cls-1" d="M310.59,142.78a12.12,12.12,0,1,1-24.23,0l-.1-50.87v-7.3C285.86,68.89,277.75,60,263.63,60h-.7c-14.42,0-22.63,9.22-22.63,25.64v57.07a12.12,12.12,0,1,1-24.23,0V78.5a37.31,37.31,0,0,1,7.81-23.23c8.41-11,22.63-17.52,37.85-17.52h3.4c15.12,0,29.44,6.51,37.85,17.52a38,38,0,0,1,7.81,23.23v2.6h0v61.68Z"/></g><g id="Care"><path class="cls-2" d="M487.34,154.07a6.08,6.08,0,0,0-1.18-2.49c-.52-.61-.79-1-.79-1.18q-1.75,2.35-3.53,4.62l0,.1c-4.62,5.88-9.29,11.41-14,16.51a106.16,106.16,0,0,1-27.64,20q-14.28,6.95-25.29,6.94A29,29,0,0,1,403,196.12a24.9,24.9,0,0,1-9.82-8,40.73,40.73,0,0,1-6.55-14.41,78.71,78.71,0,0,1-2.3-17.56c-.57,0-1.15,0-1.72,0a70.3,70.3,0,0,1-8-.5,62,62,0,0,1-15.67-4c-1.19-.48-2.36-1-3.51-1.55,0,1.14,0,2.28,0,3.41q.25,15.47,6,25.94a50.33,50.33,0,0,0,14.42,16.76A51.11,51.11,0,0,0,395,204.9a65.56,65.56,0,0,0,19.91,1.57,77.35,77.35,0,0,0,15.86-2.88,93.14,93.14,0,0,0,16.11-6.29,94.41,94.41,0,0,0,15.07-9.43,69.4,69.4,0,0,0,12.7-12.58c.31-.31.62-.63.92-.95a58.34,58.34,0,0,0,4.45-5.2q2.49-3.27,5.37-6.95a9.39,9.39,0,0,0,2.1-4.45A10.2,10.2,0,0,0,487.34,154.07Zm-4.45-71.26q-2.76-8.39-13.5-13.24t-31.18-2.22l-2.23.32a58.25,58.25,0,0,1,3.54,7.54q9.69-2.1,14.28.91a11.15,11.15,0,0,1,5.11,8.78c.35,3.85-.52,8.12-2.62,12.84a45.12,45.12,0,0,1-8.78,13,39.68,39.68,0,0,1-7.43,6.09A43.64,43.64,0,0,1,434,120a26.6,26.6,0,0,1-16.51,1.57,57.08,57.08,0,0,0,17.88,5.27,40.81,40.81,0,0,0,10.55-.16q13.23-2,22.27-8.91A41.3,41.3,0,0,0,481.44,101Q485.64,91.18,482.89,82.81Zm-79.52-4.2A102.63,102.63,0,0,0,377,99.31a87,87,0,0,0-16.5,26.33,1.8,1.8,0,0,0-.08.21A34.06,34.06,0,0,0,383,134.07c.65,0,1.3,0,1.94,0,.48,0,1-.05,1.44-.1.45-2,1-3.93,1.55-5.92a86.2,86.2,0,0,1,10.74-23.19,78.51,78.51,0,0,1,17.29-18.73l.49-.37a37.33,37.33,0,0,0-5.21-11A86.77,86.77,0,0,0,403.37,78.61Z"/><path class="cls-2" d="M385.17,140.22a79.67,79.67,0,0,0-.93,12c0,1.34,0,2.64.06,3.92-.57,0-1.15,0-1.72,0a70.3,70.3,0,0,1-8-.5,62,62,0,0,1-15.67-4c-1.19-.48-2.36-1-3.51-1.55a64.76,64.76,0,0,1,1.09-10.64,74.93,74.93,0,0,1,4-13.65A34.06,34.06,0,0,0,383,134.07c.65,0,1.3,0,1.94,0,.48,0,1-.05,1.44-.1C385.88,136,385.49,138.13,385.17,140.22Z"/><path class="cls-2" d="M548.25,130q1.05,5.5-3.67,9.43a27.46,27.46,0,0,1,3.41,1q1.31.53,1,1.05a154.72,154.72,0,0,1-5.24,18.6,162.1,162.1,0,0,0-5.24,18.08c-1.23,4.89-1.18,7.25.13,7.07s3.44-1.92,6.42-5.24,6.5-7.64,10.61-13,8.34-10.78,12.71-16.37a3.12,3.12,0,0,0,.78,1.18,7.28,7.28,0,0,1,1.44,6.15,10.63,10.63,0,0,1-2.22,4.46q-5.25,6.28-9.17,11.13t-7.6,8.78q-3.67,3.93-7.47,7.34a84.94,84.94,0,0,1-8.78,6.81,12.43,12.43,0,0,1-5.89,2.62,17,17,0,0,1-6.29-.13,14.19,14.19,0,0,1-5.24-2.23,6.43,6.43,0,0,1-2.75-3.67,11.25,11.25,0,0,1-.39-3.93c.08-1.39.21-2.88.39-4.45a87.25,87.25,0,0,1-12.58,10q-6.81,4.47-12.84,4.46-5.76,0-9.17-2.36a10.87,10.87,0,0,1-4.45-6q-2.61-8.91.26-21a71.4,71.4,0,0,1,10.09-22.92,65.36,65.36,0,0,1,18.34-18.34,42.42,42.42,0,0,1,25-7.21,32.46,32.46,0,0,1,11.92,2.1Q547.2,125.52,548.25,130Zm-29.61,12.58c4.54-.88,8.08-2.27,10.62-4.2a12.6,12.6,0,0,0,4.84-6.81c.18-1-.3-2.18-1.44-3.4s-3.1-1.4-5.89-.53q-5.78,1.58-11.14,9.3a100.06,100.06,0,0,0-9.43,17A106.85,106.85,0,0,0,500,172.15q-2.1,8.91-1.31,13.1c.17,1.4,1,2,2.49,1.71a12.83,12.83,0,0,0,5-2.36,62.39,62.39,0,0,0,5.76-4.72,53.07,53.07,0,0,0,5.37-5.63q1.83-7.33,4.2-14.94T526,145.17A10,10,0,0,1,518.64,142.55Z"/><path class="cls-2" d="M585.72,154.6,599.34,135a22.67,22.67,0,0,1,2.1-2.75,49.83,49.83,0,0,1,4.32-4.59,28.81,28.81,0,0,1,5.76-4.19,11.71,11.71,0,0,1,6.69-1.57q4.71.25,6.55,2.09a8.57,8.57,0,0,1,2.35,3.93,18.78,18.78,0,0,1-.52,7.34q-1.05,4.71-2.75,10.09t-3.28,10.61a63.78,63.78,0,0,0-2.09,8.91q-1.85,7.34.13,8.77t6.16-1.31a60.22,60.22,0,0,0,9.82-8.64q5.63-5.89,11.14-13a3.12,3.12,0,0,0,.78,1.18,5.9,5.9,0,0,1,1.18,2.49,10.15,10.15,0,0,1,.13,3.66,9.29,9.29,0,0,1-2.09,4.46,79.17,79.17,0,0,1-15.59,15.06,32.29,32.29,0,0,1-19.26,5.9,18.78,18.78,0,0,1-9.56-2.49q-4.34-2.49-5.11-8.25a26.76,26.76,0,0,1,.52-4.46,49.4,49.4,0,0,1,1.57-6.16q1.05-3.27,2.1-6.81c.69-2.36,1.31-4.41,1.83-6.15.87-2.62,1-4,.4-4.07s-1.49.4-2.62,1.45a30.81,30.81,0,0,0-3.54,3.93,40.68,40.68,0,0,0-2.62,3.66,114.25,114.25,0,0,1-6.55,10.61q-4.2,6.16-7.08,11.14l-1.57,6q-3.14,11.53-6.81,14.41t-9.69,2.62a8.91,8.91,0,0,1-6.16-2.62c-1.48-1.58-1.88-3.84-1.18-6.82q1.32-6.28,3.14-14t4.33-16.12q2.47-8.37,5.37-16.63t6.29-15.85a7.5,7.5,0,0,1,4.58-4.33,16.34,16.34,0,0,1,6.81-.91,19.37,19.37,0,0,1,6,1.3c1.66.71,2.4,1.41,2.23,2.1Z"/><path class="cls-2" d="M676.63,197a25,25,0,0,1-8.12,2.36,34.85,34.85,0,0,1-10.87-.13A28.17,28.17,0,0,1,646.76,195a20.51,20.51,0,0,1-7.86-10.48q-3.39-9.18-.52-20.83a57.45,57.45,0,0,1,29.74-37.34,43,43,0,0,1,25.81-4.19q8.9,1.31,11.79,5.37a19.23,19.23,0,0,1,3.4,6.68q1.05,6.83-3.8,13.49a46.72,46.72,0,0,1-12.44,11.66,53.34,53.34,0,0,1-16.64,7.21,33.65,33.65,0,0,1-16.38.39q-2.1,9.18-.52,15.2,1.57,5.5,5.37,7.2a13.28,13.28,0,0,0,8.91.4,38.16,38.16,0,0,0,11-5.11,89.25,89.25,0,0,0,11.66-9A85.85,85.85,0,0,0,706.76,164q5.25-6.81,10.48-13.36a3.2,3.2,0,0,0,.79,1.18,7.44,7.44,0,0,1,1.31,2.49,7.27,7.27,0,0,1,.13,3.66,10.66,10.66,0,0,1-2.23,4.46,179.45,179.45,0,0,1-19.65,21A86.17,86.17,0,0,1,676.63,197Zm9.7-69.43a21.1,21.1,0,0,0-7.6,4.72,53.64,53.64,0,0,0-7.07,8.12,62,62,0,0,0-6,10.35,105.43,105.43,0,0,0-4.46,11.13,48,48,0,0,0,11.27-5,66.9,66.9,0,0,0,10.35-7.47A35.74,35.74,0,0,0,690,141a14.63,14.63,0,0,0,2.35-8.38,10.77,10.77,0,0,0-.91-4.06Q690.51,126.31,686.33,127.61Z"/></g></g><path id="Icon" class="cls-2" d="M767.59,59.29h0c-11.05-11-28.19-11-38.85,0h0a27.58,27.58,0,0,0-38.85,0,27.17,27.17,0,0,0-1.53,37.32,197.93,197.93,0,0,0,15.24,15.62c2.29-1.14,5.33-2.29,8-3.81h0s11.43-5,18.66-15.62a60.84,60.84,0,0,1-21.71,9.91c-1.52-5.72-.38-11.81,3.81-16,5.71-5.71,22.09-7.24,27.81-16.38a1.78,1.78,0,0,1,3,0c2.67,6.1,7.24,20.57-2.66,35.43-5,7.61-16,11-24,6.85-2.67,1.91-5.33,3.81-7.24,5a186,186,0,0,0,19.43,14.86,183.22,183.22,0,0,0,40.75-35.81A28.43,28.43,0,0,0,767.59,59.29Z"/></g></g></svg>