<svg width="80" height="46" viewBox="0 0 80 46" fill="none" xmlns="http://www.w3.org/2000/svg">
<rect x="9.34583" y="10.6919" width="69.1542" height="33.0771" rx="8.5" fill="#0C1925" stroke="white" stroke-width="3"/>
<path d="M41.3403 32.7947C40.4408 32.7134 39.6193 32.4953 38.8759 32.1404C38.1399 31.7782 37.5043 31.3199 36.9691 30.7654L37.5601 29.8562C37.6121 29.7748 37.6864 29.7083 37.7831 29.6566C37.8797 29.6048 37.9801 29.5789 38.0842 29.5789C38.2254 29.5789 38.3852 29.6492 38.5637 29.7896C38.7421 29.9301 38.9614 30.0927 39.2216 30.2775C39.4818 30.455 39.7903 30.6287 40.1471 30.7987C40.5114 30.9687 40.9463 31.0833 41.4518 31.1425L41.8644 25.2543C41.344 25.0991 40.831 24.9253 40.3255 24.7331C39.8274 24.5335 39.3777 24.2785 38.9762 23.968C38.5822 23.6501 38.2626 23.2546 38.0173 22.7815C37.7794 22.301 37.6604 21.7022 37.6604 20.9851C37.6604 20.4454 37.7645 19.9206 37.9727 19.4105C38.1882 18.893 38.4968 18.4347 38.8982 18.0355C39.3071 17.6363 39.8089 17.311 40.4036 17.0597C40.9983 16.8009 41.6822 16.6568 42.4554 16.6272L42.5669 15.0304C42.5818 14.89 42.6375 14.7643 42.7342 14.6534C42.8308 14.5425 42.9609 14.4871 43.1244 14.4871H43.8604L43.7043 16.6826C44.4849 16.7787 45.1577 16.9783 45.7226 17.2814C46.2876 17.5845 46.7931 17.9505 47.2392 18.3792L46.7597 19.1111C46.611 19.3329 46.44 19.4438 46.2467 19.4438C46.1427 19.4438 46.0126 19.3994 45.8565 19.3107C45.7078 19.2146 45.5256 19.1074 45.31 18.9891C45.0945 18.8634 44.8454 18.7415 44.5629 18.6232C44.2804 18.4975 43.9571 18.4088 43.5928 18.3571L43.2248 23.724C43.7601 23.8867 44.2879 24.0641 44.8083 24.2563C45.3286 24.4485 45.797 24.6962 46.2133 24.9993C46.6296 25.3024 46.9641 25.6831 47.2169 26.1414C47.4771 26.5923 47.6072 27.1579 47.6072 27.838C47.6072 28.5033 47.4957 29.128 47.2726 29.712C47.0496 30.296 46.7225 30.8098 46.2913 31.2533C45.8676 31.6969 45.3435 32.0591 44.719 32.34C44.102 32.6136 43.3958 32.7725 42.6003 32.8169L42.4665 34.7685C42.4517 34.909 42.3922 35.0309 42.2881 35.1344C42.1915 35.2453 42.0651 35.3008 41.909 35.3008H41.173L41.3403 32.7947ZM45.7226 28.1485C45.7226 27.7789 45.652 27.461 45.5108 27.1948C45.377 26.9287 45.1911 26.6995 44.9532 26.5073C44.7153 26.3151 44.4365 26.1488 44.1169 26.0083C43.7972 25.8679 43.4553 25.7385 43.091 25.6202L42.7119 31.1425C43.1951 31.0981 43.6225 30.9946 43.9942 30.832C44.3734 30.6619 44.6893 30.4476 44.9421 30.1888C45.2023 29.9301 45.3955 29.6307 45.5219 29.2906C45.6557 28.9432 45.7226 28.5625 45.7226 28.1485ZM39.5338 20.7855C39.5338 21.1403 39.597 21.4508 39.7234 21.717C39.8497 21.9757 40.0244 22.2049 40.2475 22.4045C40.4705 22.6041 40.7307 22.7778 41.028 22.9256C41.3254 23.0735 41.6488 23.2066 41.9982 23.3248L42.3327 18.3238C41.8495 18.3681 41.4295 18.4642 41.0726 18.6121C40.7232 18.7599 40.4333 18.9448 40.2029 19.1665C39.9798 19.3883 39.8126 19.6397 39.7011 19.9206C39.5896 20.1941 39.5338 20.4824 39.5338 20.7855Z" fill="white"/>
<rect x="1.5" y="1.5" width="69.1542" height="33.0771" rx="8.5" fill="#0C1925" stroke="white" stroke-width="3"/>
<path d="M34.898 25.7078C33.9985 25.6265 33.177 25.4084 32.4336 25.0535C31.6977 24.6913 31.062 24.233 30.5268 23.6785L31.1178 22.7692C31.1698 22.6879 31.2442 22.6214 31.3408 22.5696C31.4375 22.5179 31.5378 22.492 31.6419 22.492C31.7831 22.492 31.943 22.5622 32.1214 22.7027C32.2998 22.8432 32.5191 23.0058 32.7793 23.1906C33.0395 23.368 33.348 23.5418 33.7048 23.7118C34.0691 23.8818 34.504 23.9964 35.0095 24.0555L35.4221 18.1674C34.9017 18.0121 34.3888 17.8384 33.8833 17.6462C33.3852 17.4466 32.9354 17.1916 32.534 16.8811C32.14 16.5632 31.8203 16.1677 31.575 15.6946C31.3371 15.2141 31.2182 14.6153 31.2182 13.8982C31.2182 13.3585 31.3222 12.8337 31.5304 12.3236C31.746 11.8061 32.0545 11.3478 32.4559 10.9486C32.8648 10.5494 33.3666 10.2241 33.9613 9.97275C34.556 9.71401 35.24 9.56986 36.0131 9.54029L36.1246 7.9435C36.1395 7.80304 36.1953 7.67737 36.2919 7.56648C36.3885 7.45559 36.5186 7.40015 36.6822 7.40015H37.4182L37.262 9.59573C38.0426 9.69183 38.7154 9.89143 39.2804 10.1945C39.8454 10.4976 40.3509 10.8636 40.7969 11.2923L40.3174 12.0242C40.1687 12.246 39.9978 12.3568 39.8045 12.3568C39.7004 12.3568 39.5703 12.3125 39.4142 12.2238C39.2655 12.1277 39.0834 12.0205 38.8678 11.9022C38.6522 11.7765 38.4032 11.6546 38.1207 11.5363C37.8382 11.4106 37.5148 11.3219 37.1505 11.2701L36.7825 16.6371C37.3178 16.7998 37.8456 16.9772 38.366 17.1694C38.8864 17.3616 39.3547 17.6092 39.771 17.9123C40.1873 18.2154 40.5219 18.5962 40.7746 19.0545C41.0348 19.5054 41.1649 20.071 41.1649 20.7511C41.1649 21.4164 41.0534 22.0411 40.8304 22.6251C40.6074 23.2091 40.2803 23.7229 39.8491 24.1664C39.4253 24.61 38.9012 24.9722 38.2768 25.2531C37.6598 25.5267 36.9535 25.6856 36.1581 25.73L36.0243 27.6816C36.0094 27.822 35.9499 27.944 35.8459 28.0475C35.7492 28.1584 35.6228 28.2138 35.4667 28.2138H34.7307L34.898 25.7078ZM39.2804 21.0616C39.2804 20.6919 39.2098 20.3741 39.0685 20.1079C38.9347 19.8418 38.7488 19.6126 38.511 19.4204C38.2731 19.2282 37.9943 19.0619 37.6746 18.9214C37.355 18.781 37.013 18.6516 36.6487 18.5333L36.2696 24.0555C36.7528 24.0112 37.1803 23.9077 37.552 23.7451C37.9311 23.575 38.247 23.3606 38.4998 23.1019C38.76 22.8432 38.9533 22.5438 39.0797 22.2037C39.2135 21.8563 39.2804 21.4755 39.2804 21.0616ZM33.0915 13.6986C33.0915 14.0534 33.1547 14.3639 33.2811 14.6301C33.4075 14.8888 33.5822 15.118 33.8052 15.3176C34.0282 15.5172 34.2884 15.6909 34.5858 15.8387C34.8831 15.9866 35.2065 16.1196 35.5559 16.2379L35.8905 11.2369C35.4072 11.2812 34.9872 11.3773 34.6304 11.5252C34.281 11.673 33.9911 11.8578 33.7606 12.0796C33.5376 12.3014 33.3703 12.5527 33.2588 12.8337C33.1473 13.1072 33.0915 13.3955 33.0915 13.6986Z" fill="white"/>
</svg>
