<svg width="84" height="69" viewBox="0 0 84 69" fill="none" xmlns="http://www.w3.org/2000/svg">
<path d="M64.6573 66.3356V58.5034C64.6573 54.349 63.007 50.3647 60.0694 47.4271C57.1317 44.4895 53.1474 42.8391 48.993 42.8391H17.6643C13.5099 42.8391 9.52561 44.4895 6.58798 47.4271C3.65034 50.3647 2 54.349 2 58.5034V66.3356" stroke="white" stroke-width="4" stroke-linecap="round" stroke-linejoin="round"/>
<path d="M33.3286 33.3287C41.9798 33.3287 48.993 26.3155 48.993 17.6643C48.993 9.01316 41.9798 2 33.3286 2C24.6775 2 17.6643 9.01316 17.6643 17.6643C17.6643 26.3155 24.6775 33.3287 33.3286 33.3287Z" stroke="white" stroke-width="4" stroke-linecap="round" stroke-linejoin="round"/>
<path d="M82 66.3353V58.5031C81.9974 55.0324 80.8423 51.6609 78.7159 48.9178C76.5895 46.1748 73.6123 44.2156 70.2518 43.3479" stroke="white" stroke-width="4" stroke-linecap="round" stroke-linejoin="round"/>
<path d="M54.5874 2.50854C57.9569 3.37126 60.9434 5.33087 63.0761 8.07843C65.2088 10.826 66.3664 14.2052 66.3664 17.6834C66.3664 21.1615 65.2088 24.5407 63.0761 27.2883C60.9434 30.0359 57.9569 31.9955 54.5874 32.8582" stroke="white" stroke-width="4" stroke-linecap="round" stroke-linejoin="round"/>
</svg>
