<svg width="105" height="73" viewBox="0 0 105 73" fill="none" xmlns="http://www.w3.org/2000/svg">
<path d="M98.4375 3.31818H95.527C93.8044 3.31818 92.1506 4.00505 90.9202 5.22945L82.0312 14.0956V9.95455C82.0312 4.45632 77.6212 0 72.1875 0H9.84375C4.41656 0 0 4.46295 0 9.95455V33.0889V63.0455C0 68.5404 4.40672 73 9.84375 73H72.1875C77.6212 73 82.0312 68.5404 82.0312 63.0455V58.9939L90.9202 67.8601C92.1506 69.0845 93.8044 69.7714 95.527 69.7714H98.4375C102.06 69.7714 105 66.8016 105 63.135V9.95455C105 6.28795 102.06 3.31818 98.4375 3.31818ZM9.84375 66.3636C8.0325 66.3636 6.5625 64.8738 6.5625 63.0455V9.95455C6.5625 8.11959 8.02922 6.63636 9.84375 6.63636H72.1875C73.9955 6.63636 75.4688 8.12291 75.4688 9.95455V63.0455C75.4688 64.8738 73.9955 66.3636 72.1875 66.3636H9.84375ZM98.4375 63.135H95.527H95.1562L82.0312 49.8623V49.7727L78.75 46.4545V26.5455L95.1562 9.95455H95.527H98.4375V63.135Z" fill="white"/>
</svg>
