<?xml version="1.0" ?><!DOCTYPE svg  PUBLIC '-//W3C//DTD SVG 1.1//EN'  'http://www.w3.org/Graphics/SVG/1.1/DTD/svg11.dtd'><svg enable-background="new 0 0 64 64" height="64px" id="Layer_1" version="1.1" viewBox="0 0 64 64" width="64px" xml:space="preserve" xmlns="http://www.w3.org/2000/svg" xmlns:xlink="http://www.w3.org/1999/xlink"><g><g><circle cx="24.135" cy="6.427" fill="#241F20" r="5.867"/></g><g><path d="M56.198,24.387c-4.308-3.028-8.367-4.585-13.277-4.423c-7.354,0.18-11.192,4.412-12.808,5.883    c-1.613,1.471-3.263,2.405-6.315,3.336c-6.568,1.824-11.668-1.63-13.583-3.222c-0.004-0.003-0.008-0.003-0.012-0.007    c-0.713-0.538-1.107-0.699-1.32-0.744H7.666c-0.914,0-1.079,1.073-1.102,1.647c0,5.239,0,21.359,0,23.309    c0.269,2.333,0.664,3.625,2.784,5.311c2.12,1.687,4.767,1.439,4.767,1.439s34.616-0.005,36.51-0.007    c1.854-0.144,3.63-0.68,5.239-2.607c1.608-1.928,1.567-4.136,1.567-4.136s0.003-15.806,0.007-23.21    C57.434,25.56,56.534,24.671,56.198,24.387z M18.268,45.802c-2.814,0-5.094-2.28-5.094-5.094s2.28-5.094,5.094-5.094    c2.813,0,5.094,2.28,5.094,5.094S21.081,45.802,18.268,45.802z M45.585,50.977c-3.529,0-6.388-2.858-6.388-6.386    c0-3.528,2.858-6.387,6.388-6.387c3.526,0,6.385,2.858,6.385,6.387C51.97,48.118,49.111,50.977,45.585,50.977z" fill="#241F20"/></g><g><path d="M63.946,15.262c-0.007-1.353-0.906-1.483-1.2-1.49h-1.098c-1.301,0-1.242,1.424-1.242,1.424l0,0    c0.004,7.106,0.021,38.821-0.003,39.435c-0.028,0.692-0.166,2.464-1.855,3.987c-1.827,1.467-3.654,1.273-3.654,1.273    s-45.568,0-46.647-0.056c-0.858-0.139-2.353-0.443-3.626-2.132s-1.024-3.903-1.024-3.903V15.334c0-1.294-0.792-1.53-1.222-1.562    H1.354c-1.069,0-1.272,0.835-1.302,1.315c0,6.673,0,36.977,0,39.489c0,2.823,1.024,5.066,3.495,7.049s5.364,1.81,5.364,1.81    s44.543,0,46.482-0.005c1.938-0.005,4.484-0.881,6.585-3.286c2.101-2.404,1.969-5.567,1.969-5.567V15.262z" fill="#241F20"/></g></g></svg>