<svg width="53" height="59" viewBox="0 0 53 59" fill="none" xmlns="http://www.w3.org/2000/svg">
<g filter="url(#filter0_d_29_80)">
<path d="M37.6593 37.2603L37.094 40.9811C37.0429 41.3267 36.9201 41.6578 36.7333 41.9533C36.5466 42.2487 36.3001 42.5019 36.0095 42.6966C35.719 42.8914 35.3909 43.0234 35.0462 43.0843C34.7016 43.1451 34.3479 43.1334 34.0079 43.05C30.2469 42.0542 26.7717 40.192 23.8617 37.6128C21.1484 35.2523 18.9887 32.3249 17.5361 29.0382C15.9274 25.4835 15.1802 21.6011 15.3547 17.7054C15.3758 17.3577 15.4692 17.0183 15.6289 16.7087C15.7886 16.399 16.0112 16.126 16.2825 15.907C16.5538 15.688 16.8678 15.5279 17.2046 15.4367C17.5413 15.3455 17.8935 15.3253 18.2386 15.3774L21.9668 15.9439C22.5708 16.0296 23.1231 16.3316 23.5207 16.7936C23.9184 17.2555 24.1343 17.846 24.1281 18.4548C24.1045 19.6694 24.2187 20.8829 24.4685 22.0721C24.5682 22.5415 24.5311 23.0294 24.3615 23.4782C24.1919 23.9269 23.897 24.3177 23.5116 24.6041L21.694 25.9395C22.9913 29.3133 25.1767 32.2757 28.0197 34.514L29.8373 33.1787C30.2258 32.8965 30.6873 32.7316 31.1671 32.7033C31.6469 32.6749 32.1248 32.7845 32.5443 33.019C33.6079 33.6102 34.7352 34.0794 35.9044 34.4178C36.4952 34.5945 37.0004 34.9817 37.324 35.5058C37.6475 36.0299 37.7669 36.6543 37.6593 37.2603Z" fill="white"/>
</g>
<defs>
<filter id="filter0_d_29_80" x="0.329834" y="0.349182" width="52.368" height="57.7734" filterUnits="userSpaceOnUse" color-interpolation-filters="sRGB">
<feFlood flood-opacity="0" result="BackgroundImageFix"/>
<feColorMatrix in="SourceAlpha" type="matrix" values="0 0 0 0 0 0 0 0 0 0 0 0 0 0 0 0 0 0 127 0" result="hardAlpha"/>
<feOffset/>
<feGaussianBlur stdDeviation="7.5"/>
<feComposite in2="hardAlpha" operator="out"/>
<feColorMatrix type="matrix" values="0 0 0 0 0 0 0 0 0 0 0 0 0 0 0 0 0 0 0.2 0"/>
<feBlend mode="normal" in2="BackgroundImageFix" result="effect1_dropShadow_29_80"/>
<feBlend mode="normal" in="SourceGraphic" in2="effect1_dropShadow_29_80" result="shape"/>
</filter>
</defs>
</svg>
