<svg width="198" height="293" viewBox="0 0 198 293" fill="none" xmlns="http://www.w3.org/2000/svg">
<path d="M119.684 115.469C114.78 98.8437 91.22 98.8437 86.3156 115.469L85.1281 119.506C84.3953 121.995 83.1148 124.289 81.3803 126.218C79.6458 128.148 77.5014 129.665 75.1044 130.658C72.7073 131.651 70.1185 132.094 67.5275 131.957C64.9366 131.819 62.4094 131.103 60.1312 129.861L56.45 127.843C41.2144 119.554 24.5537 136.214 32.8544 151.438L34.8613 155.131C40.1575 164.869 35.1344 176.993 24.5063 180.128L20.4687 181.316C3.84375 186.22 3.84375 209.78 20.4687 214.684L24.5063 215.872C26.9952 216.605 29.2885 217.885 31.2181 219.62C33.1477 221.354 34.6647 223.499 35.6576 225.896C36.6506 228.293 37.0945 230.882 36.9567 233.472C36.8189 236.063 36.1029 238.591 34.8613 240.869L32.8425 244.55C24.5537 259.786 41.2144 276.446 56.4381 268.146L60.1312 266.139C62.4094 264.897 64.9366 264.181 67.5275 264.043C70.1185 263.906 72.7073 264.349 75.1044 265.342C77.5014 266.335 79.6458 267.852 81.3803 269.782C83.1148 271.711 84.3953 274.005 85.1281 276.494L86.3156 280.531C91.22 297.156 114.78 297.156 119.684 280.531L120.872 276.494C121.605 274.005 122.885 271.711 124.62 269.782C126.354 267.852 128.499 266.335 130.896 265.342C133.293 264.349 135.882 263.906 138.472 264.043C141.063 264.181 143.591 264.897 145.869 266.139L149.55 268.158C164.786 276.446 181.446 259.786 173.146 244.562L171.139 240.869C169.897 238.591 169.181 236.063 169.043 233.472C168.906 230.882 169.349 228.293 170.342 225.896C171.335 223.499 172.852 221.354 174.782 219.62C176.711 217.885 179.005 216.605 181.494 215.872L185.531 214.684C202.156 209.78 202.156 186.22 185.531 181.316L181.494 180.128C179.005 179.395 176.711 178.115 174.782 176.38C172.852 174.646 171.335 172.501 170.342 170.104C169.349 167.707 168.906 165.118 169.043 162.528C169.181 159.937 169.897 157.409 171.139 155.131L173.158 151.45C181.446 136.214 164.786 119.554 149.562 127.854L145.869 129.861C143.591 131.103 141.063 131.819 138.472 131.957C135.882 132.094 133.293 131.651 130.896 130.658C128.499 129.665 126.354 128.148 124.62 126.218C122.885 124.289 121.605 121.995 120.872 119.506L119.684 115.469ZM103 232.794C93.7721 232.794 84.9222 229.128 78.3971 222.603C71.872 216.078 68.2063 207.228 68.2063 198C68.2063 188.772 71.872 179.922 78.3971 173.397C84.9222 166.872 93.7721 163.206 103 163.206C112.225 163.206 121.072 166.871 127.594 173.394C134.117 179.916 137.782 188.763 137.782 197.988C137.782 207.213 134.117 216.06 127.594 222.583C121.072 229.105 112.225 232.77 103 232.77V232.794Z" fill="#55C2FF"/>
<path d="M42.3225 42.725C40.464 36.425 31.536 36.425 29.6775 42.725L29.2275 44.255C28.9498 45.1982 28.4645 46.0672 27.8073 46.7985C27.15 47.5297 26.3374 48.1045 25.429 48.4808C24.5207 48.8571 23.5396 49.0253 22.5578 48.9731C21.576 48.9208 20.6183 48.6495 19.755 48.179L18.36 47.414C12.5865 44.273 6.273 50.5865 9.4185 56.3555L10.179 57.755C12.186 61.445 10.2825 66.0395 6.255 67.2275L4.725 67.6775C-1.575 69.536 -1.575 78.464 4.725 80.3225L6.255 80.7725C7.19818 81.0502 8.06724 81.5355 8.79846 82.1927C9.52967 82.85 10.1045 83.6626 10.4808 84.571C10.8571 85.4793 11.0253 86.4604 10.9731 87.4422C10.9208 88.424 10.6495 89.3817 10.179 90.245L9.414 91.64C6.273 97.4135 12.5865 103.727 18.3555 100.581L19.755 99.821C20.6183 99.3505 21.576 99.0792 22.5578 99.0269C23.5396 98.9747 24.5207 99.1429 25.429 99.5192C26.3374 99.8955 27.15 100.47 27.8073 101.202C28.4645 101.933 28.9498 102.802 29.2275 103.745L29.6775 105.275C31.536 111.575 40.464 111.575 42.3225 105.275L42.7725 103.745C43.0502 102.802 43.5355 101.933 44.1927 101.202C44.85 100.47 45.6626 99.8955 46.571 99.5192C47.4793 99.1429 48.4604 98.9747 49.4422 99.0269C50.424 99.0792 51.3817 99.3505 52.245 99.821L53.64 100.586C59.4135 103.727 65.727 97.4135 62.5815 91.6445L61.821 90.245C61.3505 89.3817 61.0792 88.424 61.0269 87.4422C60.9747 86.4604 61.1429 85.4793 61.5192 84.571C61.8955 83.6626 62.4703 82.85 63.2015 82.1927C63.9328 81.5355 64.8018 81.0502 65.745 80.7725L67.275 80.3225C73.575 78.464 73.575 69.536 67.275 67.6775L65.745 67.2275C64.8018 66.9498 63.9328 66.4645 63.2015 65.8073C62.4703 65.15 61.8955 64.3374 61.5192 63.429C61.1429 62.5207 60.9747 61.5396 61.0269 60.5578C61.0792 59.576 61.3505 58.6183 61.821 57.755L62.586 56.36C65.727 50.5865 59.4135 44.273 53.6445 47.4185L52.245 48.179C51.3817 48.6495 50.424 48.9208 49.4422 48.9731C48.4604 49.0253 47.4793 48.8571 46.571 48.4808C45.6626 48.1045 44.85 47.5297 44.1927 46.7985C43.5355 46.0672 43.0502 45.1982 42.7725 44.255L42.3225 42.725ZM36 87.185C32.5031 87.185 29.1495 85.7959 26.6768 83.3232C24.2041 80.8505 22.815 77.4969 22.815 74C22.815 70.5031 24.2041 67.1495 26.6768 64.6768C29.1495 62.2041 32.5031 60.815 36 60.815C39.4957 60.815 42.8482 62.2037 45.32 64.6755C47.7918 67.1473 49.1805 70.4998 49.1805 73.9955C49.1805 77.4912 47.7918 80.8437 45.32 83.3155C42.8482 85.7873 39.4957 87.176 36 87.176V87.185Z" fill="#0085CA"/>
<path d="M87.3369 2.49375C86.356 -0.83125 81.644 -0.83125 80.6631 2.49375L80.4256 3.30125C80.2791 3.79904 80.023 4.25771 79.6761 4.64363C79.3292 5.02955 78.9003 5.33293 78.4209 5.53153C77.9415 5.73012 77.4237 5.81889 76.9055 5.79133C76.3873 5.76377 75.8819 5.62058 75.4262 5.37225L74.69 4.9685C71.6429 3.31075 68.3107 6.64288 69.9709 9.68762L70.3723 10.4262C71.4315 12.3737 70.4269 14.7986 68.3012 15.4256L67.4937 15.6631C64.1687 16.644 64.1687 21.356 67.4937 22.3369L68.3012 22.5744C68.799 22.7209 69.2577 22.977 69.6436 23.3239C70.0296 23.6708 70.3329 24.0997 70.5315 24.5791C70.7301 25.0585 70.8189 25.5763 70.7913 26.0945C70.7638 26.6127 70.6206 27.1181 70.3723 27.5737L69.9685 28.31C68.3108 31.3571 71.6429 34.6892 74.6876 33.0291L75.4262 32.6278C75.8819 32.3794 76.3873 32.2362 76.9055 32.2087C77.4237 32.1811 77.9415 32.2699 78.4209 32.4685C78.9003 32.6671 79.3292 32.9705 79.6761 33.3564C80.023 33.7423 80.2791 34.201 80.4256 34.6987L80.6631 35.5062C81.644 38.8312 86.356 38.8312 87.3369 35.5062L87.5744 34.6987C87.7209 34.201 87.977 33.7423 88.3239 33.3564C88.6708 32.9705 89.0997 32.6671 89.5791 32.4685C90.0585 32.2699 90.5763 32.1811 91.0945 32.2087C91.6127 32.2362 92.1181 32.3794 92.5737 32.6278L93.31 33.0315C96.3571 34.6893 99.6892 31.3571 98.0291 28.3124L97.6278 27.5737C97.3794 27.1181 97.2362 26.6127 97.2087 26.0945C97.1811 25.5763 97.2699 25.0585 97.4685 24.5791C97.6671 24.0997 97.9705 23.6708 98.3564 23.3239C98.7423 22.977 99.201 22.7209 99.6987 22.5744L100.506 22.3369C103.831 21.356 103.831 16.644 100.506 15.6631L99.6987 15.4256C99.201 15.2791 98.7423 15.023 98.3564 14.6761C97.9705 14.3292 97.6671 13.9003 97.4685 13.4209C97.2699 12.9415 97.1811 12.4237 97.2087 11.9055C97.2362 11.3873 97.3794 10.8819 97.6278 10.4262L98.0315 9.69C99.6893 6.64287 96.3571 3.31075 93.3124 4.97087L92.5737 5.37225C92.1181 5.62058 91.6127 5.76377 91.0945 5.79133C90.5763 5.81889 90.0585 5.73012 89.5791 5.53153C89.0997 5.33293 88.6708 5.02955 88.3239 4.64363C87.977 4.25771 87.7209 3.79904 87.5744 3.30125L87.3369 2.49375ZM84 25.9588C82.1544 25.9588 80.3844 25.2256 79.0794 23.9206C77.7744 22.6156 77.0413 20.8456 77.0413 19C77.0413 17.1544 77.7744 15.3844 79.0794 14.0794C80.3844 12.7744 82.1544 12.0413 84 12.0413C85.8449 12.0413 87.6143 12.7742 88.9189 14.0787C90.2235 15.3833 90.9564 17.1527 90.9564 18.9976C90.9564 20.8426 90.2235 22.612 88.9189 23.9165C87.6143 25.2211 85.8449 25.954 84 25.954V25.9588Z" fill="#0C1925"/>
</svg>
