<svg width="190" height="190" viewBox="0 0 190 190" fill="none" xmlns="http://www.w3.org/2000/svg">
<path d="M111.684 12.4687C106.78 -4.15625 83.22 -4.15625 78.3156 12.4687L77.1281 16.5063C76.3953 18.9952 75.1148 21.2885 73.3803 23.2181C71.6458 25.1477 69.5014 26.6647 67.1044 27.6576C64.7073 28.6506 62.1185 29.0945 59.5275 28.9567C56.9366 28.8189 54.4094 28.1029 52.1312 26.8613L48.45 24.8425C33.2144 16.5537 16.5537 33.2144 24.8544 48.4381L26.8613 52.1312C32.1575 61.8687 27.1344 73.9931 16.5063 77.1281L12.4687 78.3156C-4.15625 83.22 -4.15625 106.78 12.4687 111.684L16.5063 112.872C18.9952 113.605 21.2885 114.885 23.2181 116.62C25.1477 118.354 26.6647 120.499 27.6576 122.896C28.6506 125.293 29.0945 127.882 28.9567 130.472C28.8189 133.063 28.1029 135.591 26.8613 137.869L24.8425 141.55C16.5537 156.786 33.2144 173.446 48.4381 165.146L52.1312 163.139C54.4094 161.897 56.9366 161.181 59.5275 161.043C62.1185 160.906 64.7073 161.349 67.1044 162.342C69.5014 163.335 71.6458 164.852 73.3803 166.782C75.1148 168.711 76.3953 171.005 77.1281 173.494L78.3156 177.531C83.22 194.156 106.78 194.156 111.684 177.531L112.872 173.494C113.605 171.005 114.885 168.711 116.62 166.782C118.354 164.852 120.499 163.335 122.896 162.342C125.293 161.349 127.882 160.906 130.472 161.043C133.063 161.181 135.591 161.897 137.869 163.139L141.55 165.158C156.786 173.446 173.446 156.786 165.146 141.562L163.139 137.869C161.897 135.591 161.181 133.063 161.043 130.472C160.906 127.882 161.349 125.293 162.342 122.896C163.335 120.499 164.852 118.354 166.782 116.62C168.711 114.885 171.005 113.605 173.494 112.872L177.531 111.684C194.156 106.78 194.156 83.22 177.531 78.3156L173.494 77.1281C171.005 76.3953 168.711 75.1148 166.782 73.3803C164.852 71.6458 163.335 69.5014 162.342 67.1044C161.349 64.7073 160.906 62.1185 161.043 59.5275C161.181 56.9366 161.897 54.4094 163.139 52.1312L165.158 48.45C173.446 33.2144 156.786 16.5537 141.562 24.8544L137.869 26.8613C135.591 28.1029 133.063 28.8189 130.472 28.9567C127.882 29.0945 125.293 28.6506 122.896 27.6576C120.499 26.6647 118.354 25.1477 116.62 23.2181C114.885 21.2885 113.605 18.9952 112.872 16.5063L111.684 12.4687ZM95 129.794C85.7721 129.794 76.9222 126.128 70.3971 119.603C63.872 113.078 60.2063 104.228 60.2063 95C60.2063 85.7721 63.872 76.9222 70.3971 70.3971C76.9222 63.872 85.7721 60.2063 95 60.2063C104.225 60.2063 113.072 63.8708 119.594 70.3936C126.117 76.9165 129.782 85.7634 129.782 94.9881C129.782 104.213 126.117 113.06 119.594 119.583C113.072 126.105 104.225 129.77 95 129.77V129.794Z" fill="#55C2FF"/>
</svg>
