<?xml version="1.0" encoding="utf-8"?>
<!-- Generator: Adobe Illustrator 24.0.2, SVG Export Plug-In . SVG Version: 6.00 Build 0)  -->
<svg version="1.1" id="Layer_1" xmlns="http://www.w3.org/2000/svg" xmlns:xlink="http://www.w3.org/1999/xlink" x="0px" y="0px"
	 viewBox="0 0 80 80" style="enable-background:new 0 0 80 80;" xml:space="preserve">
<style type="text/css">
	.st0{fill:none;stroke:#FFFFFF;stroke-width:3;stroke-linecap:round;stroke-linejoin:round;}
</style>
<path class="st0" d="M30.8,10.9l0.7-5.3c0.3-1.9,1.8-3.2,3.7-3.2h9.6c1.9,0,3.5,1.4,3.7,3.2l0.8,5.4c0.2,1.3,1,2.4,2.2,2.9
	c2,0.9,3.8,2,5.6,3.3c1.1,0.8,2.4,1,3.6,0.5l4.8-1.9c1.7-0.7,3.7,0,4.6,1.6l4.7,8.2c1,1.7,0.5,3.8-1,4.9L70,33.2
	c-1.1,0.8-1.7,2.1-1.5,3.5c0.2,2.2,0.2,4.4,0,6.5c-0.2,1.3,0.4,2.6,1.4,3.4l4.1,3.2c1.5,1.1,1.9,3.2,0.9,4.8l-4.8,8.3
	c-0.9,1.6-2.9,2.3-4.6,1.6l-4.8-1.9c-1.2-0.5-2.6-0.3-3.6,0.5c-0.9,0.6-1.8,1.2-2.7,1.7c-0.9,0.5-1.9,1-2.8,1.5
	c-1.2,0.5-2.1,1.6-2.2,2.9l-0.7,5.3c-0.3,1.9-1.8,3.2-3.7,3.2h-9.6c-1.9,0-3.5-1.4-3.7-3.2l-0.8-5.4c-0.2-1.3-1-2.4-2.2-2.9
	c-2-0.9-3.8-2-5.6-3.3c-1.1-0.8-2.4-1-3.6-0.5l-4.8,1.9c-1.7,0.7-3.7,0-4.6-1.6l-4.8-8.3c-0.9-1.6-0.5-3.7,1-4.9l4-3
	c1.1-0.8,1.6-2.1,1.4-3.4c-0.3-2.2-0.3-4.4,0-6.6c0.2-1.3-0.4-2.6-1.4-3.4l-4-3.1c-1.5-1.1-1.9-3.2-1-4.8L9.9,17
	c0.9-1.6,2.9-2.3,4.6-1.6l4.8,1.9c1.2,0.5,2.6,0.3,3.6-0.5c0.9-0.6,1.8-1.2,2.7-1.7c0.9-0.5,1.8-0.9,2.8-1.3
	C29.7,13.3,30.6,12.2,30.8,10.9z"/>
<circle class="st0" cx="40" cy="39.9" r="13.4"/>
</svg>
