<svg width="38" height="38" viewBox="0 0 38 38" fill="none" xmlns="http://www.w3.org/2000/svg">
<path d="M22.3369 2.49375C21.356 -0.83125 16.644 -0.83125 15.6631 2.49375L15.4256 3.30125C15.2791 3.79904 15.023 4.25771 14.6761 4.64363C14.3292 5.02955 13.9003 5.33293 13.4209 5.53153C12.9415 5.73012 12.4237 5.81889 11.9055 5.79133C11.3873 5.76377 10.8819 5.62058 10.4262 5.37225L9.69 4.9685C6.64287 3.31075 3.31075 6.64288 4.97087 9.68762L5.37225 10.4262C6.4315 12.3737 5.42688 14.7986 3.30125 15.4256L2.49375 15.6631C-0.83125 16.644 -0.83125 21.356 2.49375 22.3369L3.30125 22.5744C3.79904 22.7209 4.25771 22.977 4.64363 23.3239C5.02955 23.6708 5.33293 24.0997 5.53153 24.5791C5.73012 25.0585 5.81889 25.5763 5.79133 26.0945C5.76377 26.6127 5.62058 27.1181 5.37225 27.5737L4.9685 28.31C3.31075 31.3571 6.64288 34.6892 9.68762 33.0291L10.4262 32.6278C10.8819 32.3794 11.3873 32.2362 11.9055 32.2087C12.4237 32.1811 12.9415 32.2699 13.4209 32.4685C13.9003 32.6671 14.3292 32.9705 14.6761 33.3564C15.023 33.7423 15.2791 34.201 15.4256 34.6987L15.6631 35.5062C16.644 38.8312 21.356 38.8312 22.3369 35.5062L22.5744 34.6987C22.7209 34.201 22.977 33.7423 23.3239 33.3564C23.6708 32.9705 24.0997 32.6671 24.5791 32.4685C25.0585 32.2699 25.5763 32.1811 26.0945 32.2087C26.6127 32.2362 27.1181 32.3794 27.5737 32.6278L28.31 33.0315C31.3571 34.6893 34.6892 31.3571 33.0291 28.3124L32.6278 27.5737C32.3794 27.1181 32.2362 26.6127 32.2087 26.0945C32.1811 25.5763 32.2699 25.0585 32.4685 24.5791C32.6671 24.0997 32.9705 23.6708 33.3564 23.3239C33.7423 22.977 34.201 22.7209 34.6987 22.5744L35.5062 22.3369C38.8312 21.356 38.8312 16.644 35.5062 15.6631L34.6987 15.4256C34.201 15.2791 33.7423 15.023 33.3564 14.6761C32.9705 14.3292 32.6671 13.9003 32.4685 13.4209C32.2699 12.9415 32.1811 12.4237 32.2087 11.9055C32.2362 11.3873 32.3794 10.8819 32.6278 10.4262L33.0315 9.69C34.6893 6.64287 31.3571 3.31075 28.3124 4.97087L27.5737 5.37225C27.1181 5.62058 26.6127 5.76377 26.0945 5.79133C25.5763 5.81889 25.0585 5.73012 24.5791 5.53153C24.0997 5.33293 23.6708 5.02955 23.3239 4.64363C22.977 4.25771 22.7209 3.79904 22.5744 3.30125L22.3369 2.49375ZM19 25.9588C17.1544 25.9588 15.3844 25.2256 14.0794 23.9206C12.7744 22.6156 12.0413 20.8456 12.0413 19C12.0413 17.1544 12.7744 15.3844 14.0794 14.0794C15.3844 12.7744 17.1544 12.0413 19 12.0413C20.8449 12.0413 22.6143 12.7742 23.9189 14.0787C25.2235 15.3833 25.9564 17.1527 25.9564 18.9976C25.9564 20.8426 25.2235 22.612 23.9189 23.9165C22.6143 25.2211 20.8449 25.954 19 25.954V25.9588Z" fill="#0C1925"/>
</svg>
