<svg width="178" height="76" viewBox="0 0 178 76" fill="none" xmlns="http://www.w3.org/2000/svg">
<path d="M158.359 36.944C158.359 44.4922 153.201 50.7886 145.083 50.7886C137.27 50.7886 131.732 44.4163 131.732 36.7544V36.6027C131.732 28.9787 136.89 22.6822 144.932 22.6822C152.821 22.6822 158.359 29.0545 158.359 36.7923V36.944ZM167.993 36.6027C167.993 24.2753 158.283 14.2617 145.083 14.2617C131.884 14.2617 122.098 24.465 122.098 36.7544V36.9061C122.098 48.1714 130.329 57.5781 141.897 58.9815C142.883 59.0953 143.908 59.1712 144.932 59.1712C145.956 59.1712 146.98 59.0953 147.966 58.9815C159.687 57.5781 167.993 48.0197 167.993 36.7544V36.6027Z" fill="white"/>
<path d="M31.027 0C28.4098 0 26.2477 2.1241 26.2477 4.77922C26.2477 7.39641 28.3718 9.55844 31.027 9.55844C33.6441 9.55844 35.8062 7.43434 35.8062 4.77922C35.7682 2.1241 33.6441 0 31.027 0Z" fill="white"/>
<path d="M174.935 55.8714C174.935 55.9473 174.859 56.0232 174.783 56.0232C174.707 56.0232 174.631 55.9473 174.631 55.8714V53.937L174.1 55.037C174.062 55.0749 174.024 55.1128 173.986 55.1128C173.948 55.1128 173.872 55.0749 173.872 55.037L173.341 53.937V55.8714C173.341 55.9473 173.266 56.0232 173.19 56.0232C173.114 56.0232 173.038 55.9473 173.038 55.8714V53.3301C173.038 53.2543 173.114 53.1784 173.19 53.1784C173.228 53.1784 173.304 53.2163 173.304 53.2543L173.948 54.6577L174.593 53.2543C174.631 53.2163 174.669 53.1784 174.707 53.1784C174.783 53.1784 174.859 53.2543 174.859 53.3301V55.8714H174.935ZM172.431 53.3301C172.431 53.406 172.355 53.4818 172.279 53.4818H171.483V55.8714C171.483 55.9473 171.407 56.0232 171.331 56.0232C171.255 56.0232 171.179 55.9473 171.179 55.8714V53.4818H170.383C170.269 53.4818 170.231 53.368 170.231 53.3301C170.231 53.2163 170.307 53.1784 170.383 53.1784H172.241C172.355 53.1784 172.431 53.2543 172.431 53.3301ZM177.4 54.4301C177.4 51.8129 175.276 49.6509 172.621 49.6509C170.004 49.6509 167.842 51.775 167.842 54.4301C167.842 56.6301 169.321 58.4507 171.331 59.0197C171.748 59.1335 172.166 59.2093 172.583 59.2093C173 59.2093 173.455 59.1335 173.835 59.0197C175.921 58.4507 177.4 56.5921 177.4 54.4301Z" fill="white"/>
<path d="M31.1408 14.2998C28.5615 14.2998 26.5891 16.348 26.5891 18.9273V41.5338C26.5891 41.4958 26.5891 41.4958 26.5891 41.4579C26.4374 47.413 23.3651 50.7508 18.0169 50.7508H17.7514C12.2894 50.7508 9.17913 47.2612 9.17913 41.0407V40.9648C9.17913 38.3855 7.1309 36.3373 4.55164 36.3373C2.04824 36.3373 0 38.3855 0 40.9648V43.7716C0 47.1095 1.06205 50.0301 2.80684 52.4198C5.95506 56.6679 11.417 59.1714 17.2204 59.1714H18.51C22.7202 59.1714 26.7029 57.8438 29.8132 55.53C30.9891 54.6197 32.0511 53.5956 32.9235 52.4198C34.7062 50.0301 35.7303 47.1095 35.7303 43.7716V18.8894C35.7683 16.348 33.72 14.2998 31.1408 14.2998Z" fill="white"/>
<path d="M76.9227 19.3824C76.9227 16.8031 74.8744 14.7549 72.371 14.7549C69.7918 14.7549 67.7435 16.8031 67.7435 19.3824L67.7056 38.651C67.7056 40.3199 67.7056 41.382 67.7056 41.4199C67.5539 47.3749 64.4815 50.7507 59.1333 50.7507H58.8678C53.4059 50.7507 50.2956 47.2612 50.2956 41.0406V19.4203C50.2956 16.8411 48.2474 14.7928 45.6681 14.7928C43.1647 14.7928 41.1165 16.8411 41.1165 19.4203V43.7716C41.1165 47.1853 42.2164 50.1818 44.075 52.5714C47.2612 56.7437 52.6473 59.2092 58.4127 59.2092H59.7023C65.4298 59.2092 70.8538 56.7437 74.04 52.5714C75.8606 50.1818 76.9985 47.1853 76.9985 43.7716C76.9985 43.7716 76.9985 43.3923 76.9985 42.7854V19.3824H76.9227Z" fill="white"/>
<path d="M117.66 54.0887C117.66 56.6679 115.612 58.7162 113.108 58.7162C110.529 58.7162 108.481 56.6679 108.481 54.0887L108.443 34.8201C108.443 33.1512 108.443 32.0891 108.443 32.0512C108.291 26.0961 105.219 22.7203 99.8705 22.7203H99.605C94.143 22.7203 91.0327 26.2099 91.0327 32.4305V54.0508C91.0327 56.63 88.9845 58.6782 86.4052 58.6782C83.9018 58.6782 81.8536 56.63 81.8536 54.0508V29.7374C81.8536 26.3237 82.9536 23.3272 84.8121 20.9376C87.9983 16.7653 93.3844 14.2998 99.1498 14.2998H100.439C106.167 14.2998 111.591 16.7653 114.777 20.9376C116.598 23.3272 117.736 26.3237 117.736 29.7374C117.736 29.7374 117.736 30.1167 117.736 30.7236V54.0887H117.66Z" fill="white"/>
<path d="M22.2651 68.578C22.5306 68.5021 22.8341 68.4263 23.1754 68.3884C23.4789 68.3504 23.8203 68.3125 24.1237 68.3125C24.9961 68.3125 25.6409 68.5021 26.0581 68.8435C26.4754 69.1849 26.665 69.7538 26.665 70.4366V70.8538C26.665 72.2952 25.8306 73.0159 24.1237 73.0159C23.8961 73.0159 23.6685 73.0159 23.403 72.9779C23.1754 72.9779 22.9479 72.94 22.7203 72.9021V75.5193C22.7203 75.5951 22.6823 75.633 22.5686 75.633H22.1134C22.0375 75.633 21.9617 75.5951 21.9617 75.5193V68.9194C21.9996 68.7677 22.0755 68.6539 22.2651 68.578ZM22.7203 72.371C22.9099 72.409 23.0996 72.4469 23.3272 72.4469C23.5547 72.4469 23.7444 72.4848 23.934 72.4848C24.6547 72.4848 25.1857 72.371 25.4892 72.1055C25.7926 71.84 25.9444 71.4228 25.9444 70.8918V70.6262C25.9444 70.0573 25.7926 69.6401 25.4892 69.4125C25.1857 69.147 24.6547 69.0332 23.934 69.0332C23.7444 69.0332 23.5168 69.0332 23.2892 69.0711C23.0616 69.109 22.872 69.147 22.6823 69.1849L22.7203 72.371Z" fill="white"/>
<path d="M33.4546 68.6157C33.4546 68.5399 33.4925 68.502 33.6063 68.502H34.0614C34.1373 68.502 34.2132 68.5399 34.2132 68.6157V75.6328C34.2132 75.7087 34.1752 75.7466 34.0614 75.7466H33.6063C33.5304 75.7466 33.4546 75.7087 33.4546 75.6328V72.3329H29.965V75.6328C29.965 75.7087 29.927 75.7466 29.8132 75.7466H29.3581C29.2822 75.7466 29.2064 75.7087 29.2064 75.6328V68.6157C29.2064 68.5399 29.2443 68.502 29.3581 68.502H29.8132C29.8891 68.502 29.965 68.5399 29.965 68.6157V71.6881H33.4546V68.6157Z" fill="white"/>
<path d="M39.6372 68.502C39.7131 68.502 39.751 68.5019 39.7889 68.5399C39.8269 68.5778 39.8648 68.6157 39.8648 68.6537L42.0647 75.5949C42.1027 75.6708 42.0647 75.7466 41.951 75.7466H41.4579C41.382 75.7466 41.3061 75.7087 41.3061 75.6708L40.7751 73.926H37.8166L37.2855 75.6708C37.2476 75.7466 37.2097 75.7466 37.1338 75.7466H36.6407C36.5269 75.7466 36.489 75.7087 36.5269 75.5949L38.7269 68.6537C38.7648 68.6157 38.7648 68.5399 38.8027 68.5399C38.8407 68.5019 38.8786 68.502 38.9545 68.502H39.6372ZM38.0062 73.2812H40.5855L39.2958 69.1468L38.0062 73.2812Z" fill="white"/>
<path d="M46.5405 68.3506C47.4508 68.3506 48.0956 68.5402 48.4749 68.8816C48.8542 69.2609 49.0818 69.754 49.0818 70.4368V70.7023C49.0818 71.1954 48.968 71.6126 48.7784 71.954C48.5508 72.2953 48.2474 72.5229 47.7922 72.6746L49.3853 75.5953C49.3853 75.6332 49.3853 75.6711 49.3853 75.6711C49.3853 75.7091 49.3473 75.7091 49.3094 75.7091H48.8163C48.7025 75.7091 48.6267 75.6711 48.5887 75.5953L47.0715 72.7884C46.9956 72.7884 46.9198 72.7884 46.8439 72.7884C46.7681 72.7884 46.6922 72.7884 46.6163 72.7884C46.3888 72.7884 46.1612 72.7884 45.9336 72.7884C45.706 72.7884 45.4784 72.7505 45.2509 72.7126V75.5573C45.2509 75.6332 45.2129 75.6711 45.0991 75.6711H44.644C44.5681 75.6711 44.4922 75.6332 44.4922 75.5573V68.9575C44.4922 68.7299 44.5681 68.6161 44.7578 68.5402C45.0233 68.4644 45.3267 68.3885 45.6302 68.3506C45.8957 68.3885 46.1991 68.3506 46.5405 68.3506ZM45.1371 72.1436C45.3267 72.1815 45.5164 72.2195 45.7439 72.2195C45.9715 72.2195 46.1612 72.2195 46.3508 72.2195C46.7301 72.2195 47.0336 72.1816 47.2991 72.1057C47.5646 72.0298 47.7543 71.954 47.906 71.8022C48.0577 71.6505 48.1715 71.4988 48.2474 71.3092C48.3232 71.1195 48.3611 70.8919 48.3611 70.6264V70.5506C48.3611 70.285 48.3232 70.0574 48.2474 69.8678C48.1715 69.6781 48.0577 69.4885 47.906 69.3747C47.7543 69.2609 47.5646 69.1471 47.2991 69.0713C47.0336 68.9954 46.7301 68.9575 46.3508 68.9575C46.1612 68.9575 45.9336 68.9575 45.7439 68.9954C45.5164 69.0333 45.3267 69.0713 45.1371 69.1092V72.1436Z" fill="white"/>
<path d="M54.9231 73.6605C54.8093 73.6605 54.7335 73.6225 54.6955 73.5467L52.6094 69.6019V75.6328C52.6094 75.7087 52.5714 75.7466 52.4577 75.7466H52.0025C51.9266 75.7466 51.8508 75.7087 51.8508 75.6328V68.6157C51.8508 68.5399 51.8887 68.502 52.0025 68.502H52.6094C52.7232 68.502 52.799 68.5399 52.8749 68.6537L55.1128 72.8639L57.3507 68.6537C57.3886 68.5778 57.4645 68.502 57.6162 68.502H58.2231C58.2989 68.502 58.3748 68.5399 58.3748 68.6157V75.6328C58.3748 75.7087 58.3369 75.7466 58.2231 75.7466H57.7679C57.692 75.7466 57.6162 75.7087 57.6162 75.6328V69.564L55.53 73.5087C55.4921 73.5846 55.4162 73.6225 55.3024 73.6225H54.9231V73.6605Z" fill="white"/>
<path d="M63.7609 68.502C63.8367 68.502 63.8747 68.5019 63.9126 68.5399C63.9505 68.5778 63.9884 68.6157 63.9884 68.6537L66.1884 75.5949C66.2263 75.6708 66.1884 75.7466 66.0746 75.7466H65.5815C65.5057 75.7466 65.4298 75.7087 65.4298 75.6708L64.8988 73.926H61.9402L61.4092 75.6708C61.3713 75.7466 61.3333 75.7466 61.2575 75.7466H60.7644C60.6506 75.7466 60.6126 75.7087 60.6506 75.5949L62.8505 68.6537C62.8885 68.6157 62.8885 68.5399 62.9264 68.5399C62.9643 68.5019 63.0023 68.502 63.0781 68.502H63.7609ZM62.1299 73.2812H64.7091L63.4195 69.1468L62.1299 73.2812Z" fill="white"/>
<path d="M72.7124 75.671C72.4469 75.7089 72.1814 75.7848 71.9159 75.7848C71.6504 75.8227 71.3469 75.8227 71.0814 75.8227C70.5883 75.8227 70.1331 75.7468 69.7538 75.5951C69.3745 75.4434 69.109 75.2158 68.8435 74.9124C68.6159 74.6089 68.4263 74.2296 68.3125 73.7745C68.1987 73.3193 68.1608 72.8262 68.1608 72.2572V71.9159C68.1608 71.3469 68.1987 70.8538 68.3125 70.3987C68.4263 69.9435 68.578 69.5642 68.8435 69.2608C69.0711 68.9573 69.3745 68.7297 69.7538 68.5401C70.1331 68.3884 70.5504 68.3125 71.0435 68.3125C71.6124 68.3125 72.1055 68.3884 72.5986 68.5022C72.6745 68.5401 72.7124 68.5401 72.7124 68.6159V68.9573C72.7124 69.0332 72.6745 69.0711 72.5607 69.0332C72.3331 68.9952 72.1055 68.9573 71.84 68.9573C71.6124 68.9573 71.3469 68.9194 71.1193 68.9194C70.3228 68.9194 69.7538 69.147 69.4125 69.6401C69.0711 70.1332 68.8814 70.8918 68.8814 71.9159V72.1814C68.8814 73.2055 69.0711 73.9641 69.4125 74.4572C69.7538 74.9503 70.3607 75.1779 71.1573 75.1779C71.3848 75.1779 71.6504 75.1779 71.9159 75.14C72.1814 75.14 72.409 75.102 72.6745 75.0641C72.7503 75.0641 72.8262 75.102 72.8262 75.1779V75.5193C72.8262 75.633 72.7883 75.671 72.7124 75.671Z" fill="white"/>
<path d="M76.8089 75.8608C76.4675 75.8608 76.2399 75.8229 76.0123 75.7849C75.8227 75.747 75.671 75.6332 75.5572 75.5194C75.4434 75.4056 75.3675 75.2539 75.3296 75.0263C75.2917 74.8367 75.2537 74.5712 75.2537 74.3056V69.9057C75.2537 69.6023 75.2537 69.3747 75.3296 69.1851C75.3675 68.9954 75.4434 68.8437 75.5572 68.692C75.671 68.5782 75.8227 68.5023 76.0123 68.4265C76.202 68.3885 76.4675 68.3506 76.8089 68.3506C77.264 68.3506 77.6813 68.3506 78.0985 68.3885C78.5157 68.3885 78.895 68.4265 79.2743 68.4644C79.3502 68.4644 79.3881 68.5402 79.3881 68.6161V68.8816C79.3881 68.9575 79.3502 68.9954 79.2364 68.9954H76.6192C76.3916 68.9954 76.2399 69.0713 76.1261 69.1851C76.0123 69.2988 75.9744 69.4885 75.9744 69.6781V71.6885H79.0088C79.0847 71.6885 79.1605 71.7264 79.1605 71.8022V72.1815C79.1605 72.2574 79.1226 72.2953 79.0088 72.2953H75.9744V74.5332C75.9744 74.7608 76.0123 74.9125 76.1261 75.0263C76.2399 75.1401 76.3916 75.216 76.6192 75.216H79.3502C79.4261 75.216 79.464 75.2539 79.464 75.3298V75.6332C79.464 75.7091 79.4261 75.747 79.3502 75.747C78.933 75.7849 78.5157 75.8229 78.0985 75.8229C77.6813 75.8608 77.264 75.8608 76.8089 75.8608Z" fill="white"/>
<path d="M84.6984 75.2155C85.3811 75.2155 85.8742 74.9879 86.1397 74.4948C86.4052 74.0396 86.5569 73.3189 86.5569 72.4086V68.5777C86.5569 68.5018 86.5949 68.4639 86.7087 68.4639H87.1638C87.2397 68.4639 87.3156 68.5018 87.3156 68.5777V72.4465C87.3156 73.5845 87.1259 74.4568 86.7087 74.9879C86.2914 75.5189 85.6466 75.8223 84.7363 75.8223C83.826 75.8223 83.1432 75.5568 82.7639 74.9879C82.3467 74.4568 82.157 73.5845 82.157 72.4465V68.5777C82.157 68.5018 82.195 68.4639 82.3088 68.4639H82.7639C82.8398 68.4639 82.9156 68.5018 82.9156 68.5777V72.4086C82.9156 73.3189 83.0674 74.0396 83.3329 74.4948C83.5225 74.9879 84.0156 75.2155 84.6984 75.2155Z" fill="white"/>
<path d="M91.6017 69.1088H89.5914C89.5156 69.1088 89.4397 69.0709 89.4397 68.995V68.6157C89.4397 68.5399 89.4776 68.502 89.5914 68.502H94.3327C94.4086 68.502 94.4844 68.5399 94.4844 68.6157V68.995C94.4844 69.0709 94.4465 69.1088 94.3327 69.1088H92.3224V75.5949C92.3224 75.6708 92.2845 75.7087 92.1707 75.7087H91.7155C91.6397 75.7087 91.5638 75.6708 91.5638 75.5949L91.6017 69.1088Z" fill="white"/>
<path d="M96.7603 68.6157C96.7603 68.5399 96.7982 68.502 96.912 68.502H97.3671C97.443 68.502 97.5189 68.5399 97.5189 68.6157V75.6328C97.5189 75.7087 97.4809 75.7466 97.3671 75.7466H96.912C96.8361 75.7466 96.7603 75.7087 96.7603 75.6328V68.6157Z" fill="white"/>
<path d="M104.763 75.671C104.498 75.7089 104.232 75.7848 103.967 75.7848C103.701 75.8227 103.398 75.8227 103.132 75.8227C102.639 75.8227 102.184 75.7468 101.805 75.5951C101.426 75.4434 101.16 75.2158 100.895 74.9124C100.667 74.6089 100.477 74.2296 100.364 73.7745C100.25 73.3193 100.212 72.8262 100.212 72.2572V71.9159C100.212 71.3469 100.25 70.8538 100.364 70.3987C100.477 69.9435 100.629 69.5642 100.895 69.2608C101.122 68.9573 101.426 68.7297 101.805 68.5401C102.184 68.3884 102.601 68.3125 103.095 68.3125C103.664 68.3125 104.157 68.3884 104.65 68.5022C104.726 68.5401 104.763 68.5401 104.763 68.6159V68.9573C104.763 69.0332 104.726 69.0711 104.612 69.0332C104.384 68.9952 104.157 68.9573 103.891 68.9573C103.664 68.9573 103.398 68.9194 103.17 68.9194C102.374 68.9194 101.805 69.147 101.464 69.6401C101.122 70.1332 100.933 70.8918 100.933 71.9159V72.1814C100.933 73.2055 101.122 73.9641 101.464 74.4572C101.805 74.9503 102.412 75.1779 103.208 75.1779C103.436 75.1779 103.701 75.1779 103.967 75.14C104.232 75.14 104.46 75.102 104.726 75.0641C104.801 75.0641 104.877 75.102 104.877 75.1779V75.5193C104.877 75.633 104.839 75.671 104.763 75.671Z" fill="white"/>
<path d="M109.808 68.502C109.884 68.502 109.922 68.5019 109.96 68.5399C109.998 68.5778 110.036 68.6157 110.036 68.6537L112.236 75.5949C112.274 75.6708 112.236 75.7466 112.122 75.7466H111.629C111.553 75.7466 111.477 75.7087 111.477 75.6708L110.946 73.926H107.988L107.457 75.6708C107.419 75.7466 107.381 75.7466 107.305 75.7466H106.812C106.698 75.7466 106.66 75.7087 106.698 75.5949L108.898 68.6537C108.936 68.6157 108.936 68.5399 108.974 68.5399C109.012 68.5019 109.05 68.502 109.125 68.502H109.808ZM108.177 73.2812H110.756L109.467 69.1468L108.177 73.2812Z" fill="white"/>
<path d="M114.587 68.6157C114.587 68.5399 114.625 68.502 114.739 68.502H115.194C115.27 68.502 115.346 68.5399 115.346 68.6157V74.5708C115.346 74.7984 115.384 74.9501 115.498 75.0639C115.612 75.1777 115.763 75.2535 115.991 75.2535H118.798C118.874 75.2535 118.949 75.2915 118.949 75.3673V75.6708C118.949 75.7466 118.912 75.7846 118.836 75.7846C118.418 75.8225 118.001 75.8604 117.546 75.8604C117.091 75.8604 116.636 75.8604 116.143 75.8604C115.839 75.8604 115.612 75.8225 115.422 75.7846C115.232 75.7466 115.081 75.6708 114.967 75.557C114.853 75.4432 114.777 75.3294 114.739 75.1398C114.701 74.988 114.663 74.7604 114.663 74.4949V68.6157H114.587Z" fill="white"/>
<path d="M120.77 75.6708C120.732 75.6708 120.694 75.6329 120.694 75.6329C120.694 75.595 120.656 75.595 120.656 75.557V75.2157C120.656 75.1398 120.694 75.1019 120.808 75.1019C121.074 75.1398 121.377 75.1777 121.718 75.1777C122.022 75.2157 122.325 75.2157 122.591 75.2157C123.236 75.2157 123.691 75.1019 123.956 74.9122C124.222 74.7226 124.336 74.4191 124.336 74.0019C124.336 73.6605 124.26 73.395 124.108 73.1674C123.956 72.9398 123.729 72.7502 123.387 72.5985L121.832 71.8778C121.453 71.6881 121.149 71.4606 120.96 71.1571C120.77 70.8537 120.656 70.5123 120.656 70.0571C120.656 69.4502 120.846 69.033 121.187 68.7296C121.529 68.4261 122.136 68.2744 122.894 68.2744C123.16 68.2744 123.463 68.2744 123.767 68.3123C124.07 68.3503 124.336 68.3882 124.601 68.4261C124.677 68.4261 124.715 68.4641 124.715 68.5399V68.8813C124.715 68.9192 124.715 68.9572 124.677 68.9572C124.639 68.9572 124.601 68.9951 124.601 68.9572C124.336 68.9192 124.07 68.8813 123.805 68.8813C123.539 68.8813 123.236 68.8434 123.008 68.8434C122.439 68.8434 122.06 68.9192 121.794 69.1089C121.529 69.2985 121.415 69.602 121.415 70.0192C121.415 70.5882 121.718 71.0054 122.325 71.2709L123.918 71.9916C124.715 72.3709 125.094 72.9778 125.094 73.8881C125.094 74.457 124.904 74.9122 124.563 75.2157C124.184 75.5191 123.577 75.6708 122.705 75.6708C122.363 75.6708 122.06 75.6708 121.718 75.6329C121.377 75.7846 121.074 75.7467 120.77 75.6708Z" fill="white"/>
<path d="M135.98 75.5948C135.715 75.6327 135.449 75.7086 135.184 75.7086C134.918 75.7465 134.615 75.7465 134.349 75.7465C133.856 75.7465 133.401 75.6707 133.059 75.519C132.68 75.3672 132.415 75.1396 132.149 74.8362C131.922 74.5328 131.732 74.1535 131.618 73.6983C131.504 73.2431 131.466 72.75 131.466 72.1811V71.8397C131.466 71.2708 131.504 70.7777 131.618 70.3225C131.732 69.8673 131.884 69.488 132.149 69.1846C132.377 68.8811 132.68 68.6536 133.059 68.4639C133.439 68.3122 133.856 68.2363 134.349 68.2363C134.918 68.2363 135.411 68.3122 135.904 68.426C135.98 68.4639 136.018 68.4639 136.018 68.5398V68.8811C136.018 68.957 135.98 68.9949 135.866 68.957C135.639 68.9191 135.411 68.8811 135.146 68.8811C134.918 68.8811 134.653 68.8432 134.425 68.8432C133.628 68.8432 133.059 69.0708 132.718 69.5639C132.377 70.057 132.187 70.8156 132.187 71.8397V72.1052C132.187 73.1293 132.377 73.8879 132.718 74.381C133.059 74.8741 133.666 75.1017 134.463 75.1017C134.691 75.1017 134.956 75.1017 135.222 75.0638C135.487 75.0259 135.715 75.0258 135.98 74.9879C136.056 74.9879 136.132 75.0259 136.132 75.1017V75.4431C136.094 75.5189 136.056 75.5569 135.98 75.5948Z" fill="white"/>
<path d="M142.732 72.1811C142.732 73.3569 142.504 74.2672 142.049 74.8741C141.594 75.481 140.873 75.7845 139.887 75.7845C138.901 75.7845 138.18 75.481 137.725 74.8741C137.27 74.2672 137.042 73.3948 137.042 72.1811V71.8397C137.042 70.6639 137.27 69.7535 137.725 69.1467C138.18 68.5398 138.901 68.2363 139.887 68.2363C140.873 68.2363 141.594 68.5398 142.049 69.1467C142.504 69.7535 142.732 70.6259 142.732 71.8397V72.1811ZM142.011 71.8776C142.011 70.8156 141.821 70.057 141.48 69.6018C141.139 69.1087 140.57 68.8811 139.887 68.8811C139.166 68.8811 138.635 69.1087 138.294 69.6018C137.953 70.0949 137.763 70.8535 137.763 71.8776V72.1431C137.763 73.2052 137.953 73.9638 138.294 74.419C138.635 74.9121 139.166 75.1396 139.887 75.1396C140.608 75.1396 141.139 74.9121 141.48 74.419C141.821 73.9259 142.011 73.1673 142.011 72.1431V71.8776Z" fill="white"/>
<path d="M146.449 68.2744C147.359 68.2744 148.004 68.4641 148.383 68.8054C148.763 69.1847 148.99 69.6778 148.99 70.3606V70.6261C148.99 71.1192 148.876 71.5364 148.687 71.8778C148.459 72.2192 148.156 72.4467 147.701 72.5985L149.294 75.5191C149.294 75.557 149.294 75.595 149.294 75.595C149.294 75.6329 149.256 75.6329 149.218 75.6329H148.725C148.611 75.6329 148.535 75.595 148.497 75.5191L146.98 72.7123C146.904 72.7123 146.828 72.7123 146.752 72.7123C146.677 72.7123 146.601 72.7123 146.525 72.7123C146.297 72.7123 146.07 72.7123 145.842 72.7123C145.614 72.7123 145.387 72.6743 145.159 72.6364V75.4812C145.159 75.557 145.121 75.595 145.008 75.595H144.552C144.477 75.595 144.401 75.557 144.401 75.4812V68.8813C144.401 68.6537 144.477 68.5399 144.666 68.4641C144.932 68.3882 145.235 68.3503 145.539 68.3123C145.842 68.2744 146.145 68.2744 146.449 68.2744ZM145.083 72.0674C145.273 72.1054 145.463 72.1054 145.69 72.1433C145.918 72.1433 146.108 72.1433 146.297 72.1433C146.677 72.1433 146.98 72.1054 147.245 72.0295C147.511 71.9537 147.701 71.8778 147.852 71.7261C148.004 71.5744 148.118 71.4226 148.194 71.233C148.27 71.0433 148.308 70.8157 148.308 70.5502V70.4744C148.308 70.2089 148.27 69.9813 148.194 69.7916C148.118 69.602 148.004 69.4502 147.852 69.2985C147.701 69.1847 147.511 69.0709 147.245 68.9951C146.98 68.9192 146.677 68.8813 146.297 68.8813C146.108 68.8813 145.88 68.8813 145.69 68.9192C145.463 68.9572 145.273 68.9572 145.083 69.033V72.0674Z" fill="white"/>
<path d="M151.038 68.5022C151.304 68.4263 151.607 68.3884 151.949 68.3504C152.252 68.3125 152.594 68.3125 152.897 68.3125C153.769 68.3125 154.414 68.5021 154.832 68.8435C155.249 69.1849 155.438 69.7159 155.438 70.4366V70.8538C155.438 72.2952 154.604 72.9779 152.897 72.9779C152.669 72.9779 152.442 72.9779 152.176 72.94C151.949 72.94 151.721 72.9021 151.494 72.8641V75.4813C151.494 75.5572 151.456 75.5951 151.342 75.5951H150.887C150.811 75.5951 150.735 75.5572 150.735 75.4813V68.8815C150.773 68.6918 150.849 68.5401 151.038 68.5022ZM151.494 72.2572C151.683 72.2952 151.873 72.3331 152.101 72.3331C152.328 72.3331 152.518 72.371 152.707 72.371C153.428 72.371 153.959 72.2572 154.263 71.9917C154.566 71.7262 154.718 71.309 154.718 70.778V70.5125C154.718 69.9435 154.566 69.5642 154.263 69.2987C153.959 69.0332 153.428 68.9194 152.745 68.9194C152.556 68.9194 152.328 68.9194 152.101 68.9573C151.873 68.9952 151.683 68.9952 151.494 69.0711V72.2572Z" fill="white"/>
</svg>
