<svg width="60" height="52" viewBox="0 0 60 52" fill="none" xmlns="http://www.w3.org/2000/svg">
<path d="M54.9013 5.26882C47.8404 -1.75562 36.8879 -1.75562 30.0762 5.26882C26.7752 1.99587 22.3136 0.159309 17.6636 0.159309C13.0136 0.159309 8.55205 1.99587 5.25107 5.26882C2.07029 8.36329 0.196421 12.5578 0.0145851 16.9903C-0.167251 21.4228 1.35674 25.7565 4.27338 29.1008C7.33347 32.6022 10.5845 35.9321 14.0117 39.0755C15.475 38.3475 17.4176 37.6132 19.1237 36.6425C19.1237 36.6425 26.4275 33.4496 31.0475 26.6678C26.8866 29.6718 22.1717 31.8227 17.1748 32.9962C16.2035 29.3435 16.932 25.4545 19.6094 22.7788C23.258 19.1325 33.7248 18.1555 37.3799 12.3188C37.4827 12.1579 37.6245 12.0256 37.792 11.9339C37.9595 11.8422 38.1474 11.7941 38.3384 11.7941C38.5294 11.7941 38.7173 11.8422 38.8849 11.9339C39.0524 12.0256 39.1941 12.1579 39.2969 12.3188C41.003 16.2142 43.9233 25.4545 37.5972 34.9439C34.4022 39.8035 27.3732 41.9683 22.2612 39.3182C20.5551 40.5379 18.8554 41.7512 17.6349 42.5111C21.5606 45.9431 25.7082 49.113 30.0506 52.0005C39.8177 45.7114 48.5936 38.0044 56.0898 29.1328C58.8148 25.6847 60.1961 21.3661 59.9775 16.9778C59.759 12.5896 57.9554 8.42938 54.9013 5.26882Z" fill="#0085CA"/>
</svg>
