<svg width="120" height="104" viewBox="0 0 120 104" fill="none" xmlns="http://www.w3.org/2000/svg">
<path d="M109.803 10.5367C95.6807 -3.51222 73.7758 -3.51222 60.1523 10.5367C53.5504 3.99076 44.6272 0.317641 35.3272 0.317641C26.0272 0.317641 17.1041 3.99076 10.5021 10.5367C4.14058 16.7256 0.392842 25.1146 0.0291702 33.9796C-0.334501 42.8446 2.71348 51.5121 8.54676 58.2007C14.6669 65.2033 21.169 71.8633 28.0234 78.1501C30.9501 76.6941 34.8352 75.2253 38.2474 73.284C38.2474 73.284 52.855 66.8982 62.0949 53.3346C53.7733 59.3427 44.3434 63.6443 34.3495 65.9914C32.407 58.686 33.8639 50.908 39.2187 45.5567C46.5161 38.264 67.4497 36.31 74.7598 24.6366C74.9655 24.3149 75.2489 24.0501 75.5839 23.8667C75.919 23.6833 76.2948 23.5872 76.6768 23.5872C77.0588 23.5872 77.4347 23.6833 77.7697 23.8667C78.1048 24.0501 78.3882 24.3149 78.5938 24.6366C82.0061 32.4274 87.8466 50.908 75.1944 69.8868C68.8044 79.606 54.7464 83.9356 44.5224 78.6354C41.1102 81.0748 37.7107 83.5014 35.2697 85.0212C43.1212 91.8851 51.4163 98.2251 60.1012 104C79.6354 91.4218 97.1873 76.0077 112.18 58.2645C117.63 51.3685 120.392 42.7313 119.955 33.9547C119.518 25.1782 115.911 16.8578 109.803 10.5367Z" fill="white"/>
</svg>
