<svg width="80" height="81" viewBox="0 0 80 81" fill="none" xmlns="http://www.w3.org/2000/svg">
<path d="M48.1175 80.0803C47.89 80.0803 47.66 80.0228 47.4575 79.8953C46.9375 79.5728 46.7275 78.9178 46.9625 78.3528L52.295 65.5103H48.52C48.1025 65.5103 47.7125 65.3003 47.48 64.9528C47.2475 64.6053 47.2075 64.1678 47.3675 63.7803L49.3225 59.1028C49.5875 58.4628 50.325 58.1653 50.955 58.4278C51.5925 58.6953 51.8925 59.4278 51.6275 60.0628L50.3975 63.0078H54.1675C54.585 63.0078 54.975 63.2178 55.2075 63.5653C55.44 63.9128 55.48 64.3503 55.3225 64.7378L52.2 72.2578L58.4775 65.0753L61.72 61.1603H56.3725C55.9525 61.1603 55.5625 60.9503 55.33 60.5978C55.0975 60.2453 55.06 59.8078 55.2225 59.4203L60.4175 47.1753C60.6825 46.5403 61.41 46.2428 62.0525 46.5053C62.69 46.7728 62.9875 47.5053 62.7225 48.1403L58.2625 58.6578H64.375C64.8575 58.6578 65.3 58.9353 65.505 59.3753C65.7125 59.8153 65.6475 60.3328 65.3375 60.7028L60.3825 66.6903L49.0625 79.6553C48.8125 79.9328 48.4675 80.0803 48.1175 80.0803Z" fill="white"/>
<path d="M12.8125 53.033C5.7475 53.033 0 47.2855 0 40.2205C0 33.1555 5.7475 27.408 12.8125 27.408C15.02 27.408 16.6425 27.9655 17.7775 29.1155C19.7875 31.1505 19.7475 34.503 19.7025 38.3855L19.6875 40.223L19.7025 42.0605C19.75 45.943 19.79 49.293 17.7775 51.328C16.6425 52.473 15.02 53.033 12.8125 53.033ZM12.8125 29.908C7.1275 29.908 2.5 34.533 2.5 40.2205C2.5 45.9055 7.1275 50.533 12.8125 50.533C14.3175 50.533 15.36 50.2155 16 49.5655C17.2775 48.2755 17.2425 45.4055 17.2025 42.0855L17.1875 40.218L17.2025 38.3505C17.2425 35.0305 17.2775 32.1605 16 30.8705C15.36 30.223 14.3175 29.908 12.8125 29.908Z" fill="white"/>
<path d="M66.8475 29.125C66.1575 29.125 65.5975 28.565 65.5975 27.875C65.5975 13.8825 54.2125 2.5 40.2225 2.5C26.23 2.5 14.8475 13.8825 14.8475 27.875C14.8475 28.565 14.2875 29.125 13.5975 29.125C12.9075 29.125 12.3475 28.565 12.3475 27.875C12.3475 12.505 24.8525 0 40.2225 0C55.5925 0 68.0975 12.505 68.0975 27.875C68.0975 28.5675 67.54 29.125 66.8475 29.125Z" fill="white"/>
<path d="M67.1875 53.0331C64.98 53.0331 63.3575 52.4706 62.2225 51.3231C60.21 49.2881 60.2525 45.9381 60.2975 42.0556L60.3125 40.2181L60.2975 38.3806C60.25 34.4981 60.21 31.1456 62.2225 29.1106C63.3575 27.9631 64.9825 27.4031 67.1875 27.4031C74.2525 27.4031 80 33.1506 80 40.2156C80 47.2856 74.2525 53.0331 67.1875 53.0331ZM67.1875 29.9081C65.6825 29.9081 64.64 30.2231 64 30.8731C62.725 32.1656 62.76 35.0331 62.8 38.3531L62.815 40.2206L62.8 42.0881C62.76 45.4081 62.7275 48.2781 64 49.5681C64.6425 50.2181 65.685 50.5356 67.1875 50.5356C72.8725 50.5356 77.5 45.9056 77.5 40.2231C77.5 34.5331 72.8725 29.9081 67.1875 29.9081Z" fill="white"/>
</svg>
